<svg xmlns="http://www.w3.org/2000/svg" xmlns:xlink="http://www.w3.org/1999/xlink" width="500" zoomAndPan="magnify" viewBox="0 0 375 374.999991" height="500" preserveAspectRatio="xMidYMid meet" version="1.0"><defs><g/><clipPath id="15d4730345"><path d="M 0 150.617188 L 91.5 150.617188 L 91.5 224.117188 L 0 224.117188 Z M 0 150.617188 " clip-rule="nonzero"/></clipPath></defs><g clip-path="url(#15d4730345)"><path fill="#ffffff" d="M 91.238281 170.640625 L 90.796875 170.003906 C 90.683594 169.757812 90.527344 169.53125 90.335938 169.34375 L 78.039062 151.519531 C 77.605469 150.894531 76.890625 150.417969 76.125 150.417969 L 15.574219 150.417969 C 14.808594 150.417969 14.09375 150.894531 13.660156 151.519531 L 1.359375 169.296875 C 1.171875 169.484375 1.019531 169.730469 0.90625 169.972656 L 0.460938 170.628906 C -0.148438 171.503906 -0.0820312 172.6875 0.613281 173.492188 L 44.09375 223.570312 C 44.109375 223.589844 44.128906 223.601562 44.148438 223.621094 C 44.230469 223.710938 44.320312 223.796875 44.421875 223.875 C 44.464844 223.910156 44.507812 223.9375 44.554688 223.96875 C 44.597656 224 44.636719 224.035156 44.679688 224.058594 C 44.710938 224.078125 44.742188 224.082031 44.769531 224.097656 C 44.890625 224.160156 45.015625 224.210938 45.144531 224.25 C 45.195312 224.269531 45.25 224.523438 45.300781 224.539062 C 45.480469 224.582031 45.660156 224.84375 45.84375 224.84375 C 45.84375 224.84375 45.847656 224.84375 45.851562 224.84375 C 45.855469 224.84375 45.859375 224.84375 45.859375 224.84375 C 46.042969 224.84375 46.222656 224.582031 46.402344 224.539062 C 46.453125 224.523438 46.503906 224.386719 46.558594 224.367188 C 46.6875 224.328125 46.8125 224.21875 46.933594 224.15625 C 46.960938 224.140625 46.992188 224.105469 47.019531 224.089844 C 47.066406 224.0625 47.101562 224.015625 47.144531 223.988281 C 47.191406 223.957031 47.238281 223.917969 47.285156 223.882812 C 47.382812 223.804688 47.472656 223.71875 47.550781 223.632812 C 47.570312 223.609375 47.59375 223.597656 47.613281 223.574219 L 91.085938 173.496094 C 91.78125 172.695312 91.847656 171.515625 91.238281 170.640625 Z M 84.214844 168.6875 L 65.519531 168.847656 L 75.046875 155.476562 Z M 45.851562 215.046875 L 31.28125 173.550781 L 60.417969 173.550781 Z M 31.914062 168.523438 L 31.457031 168.050781 L 45.851562 155.917969 L 60.246094 168.007812 L 59.785156 168.523438 Z M 62.960938 164.585938 L 52.195312 155.449219 L 69.472656 155.449219 Z M 28.742188 164.585938 L 22.230469 155.449219 L 39.507812 155.449219 Z M 16.652344 155.476562 L 26.179688 168.847656 L 7.484375 168.6875 Z M 6.644531 173.339844 L 26.339844 173.507812 L 39.613281 211.308594 Z M 52.089844 211.304688 L 65.363281 173.507812 L 85.054688 173.339844 Z M 52.089844 211.304688 " fill-opacity="1" fill-rule="nonzero"/></g><g fill="#ffffff" fill-opacity="1"><g transform="translate(163.925882, 197.745363)"><g><path d="M 5.359375 -20.25 L 5.359375 -12.625 L 17.984375 -12.625 L 17.984375 -10.125 L 5.359375 -10.125 L 5.359375 -2.46875 L 19.5 -2.46875 L 19.5 0 L 2.78125 0 L 2.78125 -22.71875 L 19.5 -22.71875 L 19.5 -20.25 Z M 5.359375 -20.25 "/></g></g></g><g fill="#ffffff" fill-opacity="1"><g transform="translate(189.293636, 197.745363)"><g><path d="M 5.359375 -22.71875 L 5.359375 -2.46875 L 17.75 -2.46875 L 17.75 0 L 2.78125 0 L 2.78125 -22.71875 Z M 5.359375 -22.71875 "/></g></g></g><g fill="#ffffff" fill-opacity="1"><g transform="translate(212.086953, 197.745363)"><g><path d="M 5.359375 -20.25 L 5.359375 -12.625 L 17.984375 -12.625 L 17.984375 -10.125 L 5.359375 -10.125 L 5.359375 -2.46875 L 19.5 -2.46875 L 19.5 0 L 2.78125 0 L 2.78125 -22.71875 L 19.5 -22.71875 L 19.5 -20.25 Z M 5.359375 -20.25 "/></g></g></g><g fill="#ffffff" fill-opacity="1"><g transform="translate(237.454706, 197.745363)"><g><path d="M 4.390625 -19.59375 C 5.347656 -20.65625 6.515625 -21.488281 7.890625 -22.09375 C 9.265625 -22.695312 10.679688 -23 12.140625 -23 C 13.609375 -23 14.878906 -22.835938 15.953125 -22.515625 C 17.035156 -22.191406 18.007812 -21.757812 18.875 -21.21875 C 20.6875 -20.050781 22.015625 -18.492188 22.859375 -16.546875 L 20.046875 -16.546875 C 19.359375 -17.785156 18.398438 -18.753906 17.171875 -19.453125 C 15.953125 -20.148438 14.5625 -20.5 13 -20.5 C 11.445312 -20.5 10.117188 -20.265625 9.015625 -19.796875 C 7.921875 -19.328125 7 -18.675781 6.25 -17.84375 C 4.6875 -16.15625 3.90625 -13.992188 3.90625 -11.359375 C 3.90625 -8.703125 4.675781 -6.539062 6.21875 -4.875 C 7.84375 -3.113281 9.992188 -2.234375 12.671875 -2.234375 C 14.816406 -2.234375 16.671875 -2.894531 18.234375 -4.21875 C 19.878906 -5.613281 20.703125 -7.457031 20.703125 -9.75 L 12.390625 -9.75 L 12.390625 -12.078125 L 23.0625 -12.078125 L 23.0625 0 L 20.703125 0 L 20.703125 -4.015625 C 19.398438 -2.046875 17.59375 -0.726562 15.28125 -0.0625 C 14.425781 0.164062 13.304688 0.28125 11.921875 0.28125 C 10.546875 0.28125 9.171875 -0.0195312 7.796875 -0.625 C 6.421875 -1.238281 5.253906 -2.070312 4.296875 -3.125 C 2.328125 -5.269531 1.34375 -8.015625 1.34375 -11.359375 C 1.34375 -14.660156 2.359375 -17.40625 4.390625 -19.59375 Z M 4.390625 -19.59375 "/></g></g></g><g fill="#ffffff" fill-opacity="1"><g transform="translate(266.769926, 197.745363)"><g><path d="M 22.625 0 L 19.765625 0 L 17 -6.59375 L 5.734375 -6.59375 L 2.953125 0 L 0.109375 0 L 9.75 -22.71875 L 12.96875 -22.71875 Z M 16 -8.953125 L 11.359375 -20.046875 L 6.734375 -8.953125 Z M 16 -8.953125 "/></g></g></g><g fill="#ffffff" fill-opacity="1"><g transform="translate(293.991274, 197.745363)"><g><path d="M 22.375 -22.71875 L 22.375 0 L 19.390625 0 L 5.359375 -19.1875 L 5.359375 0 L 2.78125 0 L 2.78125 -22.71875 L 5.765625 -22.71875 L 19.8125 -3.609375 L 19.8125 -22.71875 Z M 22.375 -22.71875 "/></g></g></g><g fill="#ffffff" fill-opacity="1"><g transform="translate(323.649751, 197.745363)"><g><path d="M 12.90625 -2.234375 C 14.53125 -2.234375 15.953125 -2.644531 17.171875 -3.46875 C 18.398438 -4.289062 19.3125 -5.398438 19.90625 -6.796875 L 22.625 -6.796875 C 21.863281 -4.640625 20.613281 -2.945312 18.875 -1.71875 C 17.019531 -0.382812 14.835938 0.28125 12.328125 0.28125 C 9.003906 0.28125 6.3125 -0.851562 4.25 -3.125 C 2.3125 -5.300781 1.34375 -8.046875 1.34375 -11.359375 C 1.34375 -14.679688 2.3125 -17.425781 4.25 -19.59375 C 6.3125 -21.863281 9.003906 -23 12.328125 -23 C 14.835938 -23 17.019531 -22.335938 18.875 -21.015625 C 20.613281 -19.773438 21.863281 -18.078125 22.625 -15.921875 L 19.90625 -15.921875 C 19.3125 -17.316406 18.398438 -18.425781 17.171875 -19.25 C 15.953125 -20.082031 14.53125 -20.5 12.90625 -20.5 C 11.28125 -20.5 9.929688 -20.265625 8.859375 -19.796875 C 7.785156 -19.328125 6.878906 -18.675781 6.140625 -17.84375 C 4.648438 -16.175781 3.90625 -14.015625 3.90625 -11.359375 C 3.90625 -8.703125 4.648438 -6.539062 6.140625 -4.875 C 7.703125 -3.113281 9.957031 -2.234375 12.90625 -2.234375 Z M 12.90625 -2.234375 "/></g></g></g><g fill="#ffffff" fill-opacity="1"><g transform="translate(351.832228, 197.745363)"><g><path d="M 5.359375 -20.25 L 5.359375 -12.625 L 17.984375 -12.625 L 17.984375 -10.125 L 5.359375 -10.125 L 5.359375 -2.46875 L 19.5 -2.46875 L 19.5 0 L 2.78125 0 L 2.78125 -22.71875 L 19.5 -22.71875 L 19.5 -20.25 Z M 5.359375 -20.25 "/></g></g></g><path stroke-linecap="butt" transform="matrix(0, -0.75, 0.75, 0, 124.604514, 268.148421)" fill="none" stroke-linejoin="miter" d="M -0.0000222779 2.501273 L 215.062492 2.501273 " stroke="#ffffff" stroke-width="5" stroke-opacity="1" stroke-miterlimit="4"/><path stroke-linecap="butt" transform="matrix(-0.53033, 0.53033, -0.53033, -0.53033, 79.078454, 127.934464)" fill="none" stroke-linejoin="miter" d="M -0.000510193 0.501997 L 31.067996 0.501997 " stroke="#ffffff" stroke-width="1" stroke-opacity="1" stroke-miterlimit="4"/><path stroke-linecap="butt" transform="matrix(0, -0.75, 0.75, 0, 44.972786, 141.542057)" fill="none" stroke-linejoin="miter" d="M -0.00121553 0.499828 L 25.285244 0.499828 " stroke="#ffffff" stroke-width="1" stroke-opacity="1" stroke-miterlimit="4"/><path stroke-linecap="butt" transform="matrix(0.53033, 0.53033, -0.53033, 0.53033, 12.449476, 127.047721)" fill="none" stroke-linejoin="miter" d="M -0.00104078 0.500312 L 31.067465 0.500312 " stroke="#ffffff" stroke-width="1" stroke-opacity="1" stroke-miterlimit="4"/></svg>