<svg xmlns="http://www.w3.org/2000/svg" xmlns:xlink="http://www.w3.org/1999/xlink" width="500" zoomAndPan="magnify" viewBox="0 0 375 374.999991" height="500" preserveAspectRatio="xMidYMid meet" version="1.0"><defs><g/><clipPath id="335a809048"><path d="M 132.113281 118.476562 L 243 118.476562 L 243 207.726562 L 132.113281 207.726562 Z M 132.113281 118.476562 " clip-rule="nonzero"/></clipPath></defs><g clip-path="url(#335a809048)"><path fill="#000000" d="M 242.328125 142.664062 L 241.792969 141.894531 C 241.65625 141.59375 241.464844 141.324219 241.238281 141.09375 L 226.382812 119.566406 C 225.855469 118.808594 224.992188 118.234375 224.070312 118.234375 L 150.921875 118.234375 C 150 118.234375 149.136719 118.808594 148.609375 119.566406 L 133.753906 141.039062 C 133.53125 141.265625 133.34375 141.5625 133.207031 141.855469 L 132.667969 142.648438 C 131.933594 143.707031 132.011719 145.132812 132.855469 146.105469 L 185.375 206.597656 C 185.394531 206.625 185.421875 206.640625 185.441406 206.664062 C 185.542969 206.773438 185.652344 206.875 185.769531 206.96875 C 185.824219 207.007812 185.875 207.046875 185.929688 207.082031 C 185.984375 207.117188 186.03125 207.160156 186.085938 207.191406 C 186.121094 207.214844 186.160156 207.21875 186.195312 207.238281 C 186.339844 207.3125 186.488281 207.375 186.644531 207.421875 C 186.707031 207.445312 186.769531 207.753906 186.835938 207.769531 C 187.050781 207.820312 187.269531 208.136719 187.488281 208.136719 C 187.492188 208.136719 187.496094 208.136719 187.5 208.136719 C 187.503906 208.136719 187.507812 208.136719 187.511719 208.136719 C 187.730469 208.136719 187.949219 207.820312 188.164062 207.769531 C 188.230469 207.753906 188.289062 207.585938 188.355469 207.566406 C 188.511719 207.515625 188.660156 207.382812 188.808594 207.304688 C 188.839844 207.285156 188.878906 207.246094 188.914062 207.226562 C 188.964844 207.195312 189.011719 207.140625 189.0625 207.105469 C 189.121094 207.066406 189.175781 207.019531 189.230469 206.976562 C 189.347656 206.886719 189.457031 206.78125 189.554688 206.671875 C 189.578125 206.648438 189.605469 206.632812 189.625 206.605469 L 242.140625 146.113281 C 242.984375 145.144531 243.0625 143.722656 242.328125 142.664062 Z M 233.839844 140.304688 L 211.257812 140.496094 L 222.769531 124.34375 Z M 187.5 196.300781 L 169.898438 146.179688 L 205.097656 146.179688 Z M 170.664062 140.105469 L 170.109375 139.53125 L 187.5 124.875 L 204.886719 139.480469 L 204.332031 140.105469 Z M 208.164062 135.347656 L 195.160156 124.308594 L 216.03125 124.308594 Z M 166.832031 135.347656 L 158.964844 124.308594 L 179.835938 124.308594 Z M 152.226562 124.347656 L 163.738281 140.496094 L 141.152344 140.304688 Z M 140.140625 145.921875 L 163.929688 146.125 L 179.960938 191.785156 Z M 195.035156 191.785156 L 211.066406 146.125 L 234.855469 145.921875 Z M 195.035156 191.785156 " fill-opacity="1" fill-rule="nonzero"/></g><g fill="#000000" fill-opacity="1"><g transform="translate(61.401431, 264.490838)"><g><path d="M 6.46875 -24.46875 L 6.46875 -15.265625 L 21.734375 -15.265625 L 21.734375 -12.234375 L 6.46875 -12.234375 L 6.46875 -2.984375 L 23.546875 -2.984375 L 23.546875 0 L 3.359375 0 L 3.359375 -27.453125 L 23.546875 -27.453125 L 23.546875 -24.46875 Z M 6.46875 -24.46875 "/></g></g></g><g fill="#000000" fill-opacity="1"><g transform="translate(92.042195, 264.490838)"><g><path d="M 6.46875 -27.453125 L 6.46875 -2.984375 L 21.4375 -2.984375 L 21.4375 0 L 3.359375 0 L 3.359375 -27.453125 Z M 6.46875 -27.453125 "/></g></g></g><g fill="#000000" fill-opacity="1"><g transform="translate(119.573394, 264.490838)"><g><path d="M 6.46875 -24.46875 L 6.46875 -15.265625 L 21.734375 -15.265625 L 21.734375 -12.234375 L 6.46875 -12.234375 L 6.46875 -2.984375 L 23.546875 -2.984375 L 23.546875 0 L 3.359375 0 L 3.359375 -27.453125 L 23.546875 -27.453125 L 23.546875 -24.46875 Z M 6.46875 -24.46875 "/></g></g></g><g fill="#000000" fill-opacity="1"><g transform="translate(150.214158, 264.490838)"><g><path d="M 5.3125 -23.671875 C 6.46875 -24.953125 7.875 -25.957031 9.53125 -26.6875 C 11.195312 -27.414062 12.910156 -27.78125 14.671875 -27.78125 C 16.441406 -27.78125 17.976562 -27.585938 19.28125 -27.203125 C 20.582031 -26.816406 21.757812 -26.289062 22.8125 -25.625 C 24.988281 -24.21875 26.59375 -22.335938 27.625 -19.984375 L 24.21875 -19.984375 C 23.382812 -21.484375 22.226562 -22.648438 20.75 -23.484375 C 19.269531 -24.328125 17.585938 -24.75 15.703125 -24.75 C 13.828125 -24.75 12.226562 -24.46875 10.90625 -23.90625 C 9.582031 -23.34375 8.460938 -22.5625 7.546875 -21.5625 C 5.671875 -19.519531 4.734375 -16.90625 4.734375 -13.71875 C 4.734375 -10.519531 5.65625 -7.910156 7.5 -5.890625 C 9.46875 -3.765625 12.066406 -2.703125 15.296875 -2.703125 C 17.898438 -2.703125 20.140625 -3.5 22.015625 -5.09375 C 24.003906 -6.78125 25 -9.007812 25 -11.78125 L 14.96875 -11.78125 L 14.96875 -14.59375 L 27.859375 -14.59375 L 27.859375 0 L 25 0 L 25 -4.859375 C 23.425781 -2.472656 21.242188 -0.878906 18.453125 -0.078125 C 17.429688 0.191406 16.082031 0.328125 14.40625 0.328125 C 12.738281 0.328125 11.070312 -0.0351562 9.40625 -0.765625 C 7.75 -1.492188 6.34375 -2.5 5.1875 -3.78125 C 2.8125 -6.375 1.625 -9.6875 1.625 -13.71875 C 1.625 -17.707031 2.851562 -21.023438 5.3125 -23.671875 Z M 5.3125 -23.671875 "/></g></g></g><g fill="#000000" fill-opacity="1"><g transform="translate(185.622919, 264.490838)"><g><path d="M 27.328125 0 L 23.890625 0 L 20.53125 -7.96875 L 6.921875 -7.96875 L 3.5625 0 L 0.125 0 L 11.78125 -27.453125 L 15.671875 -27.453125 Z M 19.328125 -10.828125 L 13.71875 -24.21875 L 8.125 -10.828125 Z M 19.328125 -10.828125 "/></g></g></g><g fill="#000000" fill-opacity="1"><g transform="translate(218.502572, 264.490838)"><g><path d="M 27.03125 -27.453125 L 27.03125 0 L 23.4375 0 L 6.46875 -23.1875 L 6.46875 0 L 3.359375 0 L 3.359375 -27.453125 L 6.96875 -27.453125 L 23.921875 -4.359375 L 23.921875 -27.453125 Z M 27.03125 -27.453125 "/></g></g></g><g fill="#000000" fill-opacity="1"><g transform="translate(254.325941, 264.490838)"><g><path d="M 15.59375 -2.703125 C 17.550781 -2.703125 19.269531 -3.195312 20.75 -4.1875 C 22.226562 -5.1875 23.328125 -6.523438 24.046875 -8.203125 L 27.328125 -8.203125 C 26.410156 -5.609375 24.90625 -3.566406 22.8125 -2.078125 C 20.570312 -0.472656 17.929688 0.328125 14.890625 0.328125 C 10.878906 0.328125 7.628906 -1.039062 5.140625 -3.78125 C 2.796875 -6.40625 1.625 -9.71875 1.625 -13.71875 C 1.625 -17.726562 2.796875 -21.046875 5.140625 -23.671875 C 7.628906 -26.410156 10.878906 -27.78125 14.890625 -27.78125 C 17.929688 -27.78125 20.570312 -26.976562 22.8125 -25.375 C 24.90625 -23.882812 26.410156 -21.835938 27.328125 -19.234375 L 24.046875 -19.234375 C 23.328125 -20.921875 22.226562 -22.257812 20.75 -23.25 C 19.269531 -24.25 17.546875 -24.75 15.578125 -24.75 C 13.617188 -24.75 11.988281 -24.46875 10.6875 -23.90625 C 9.394531 -23.34375 8.304688 -22.5625 7.421875 -21.5625 C 5.628906 -19.539062 4.734375 -16.925781 4.734375 -13.71875 C 4.734375 -10.519531 5.628906 -7.910156 7.421875 -5.890625 C 9.304688 -3.765625 12.03125 -2.703125 15.59375 -2.703125 Z M 15.59375 -2.703125 "/></g></g></g><g fill="#000000" fill-opacity="1"><g transform="translate(288.366505, 264.490838)"><g><path d="M 6.46875 -24.46875 L 6.46875 -15.265625 L 21.734375 -15.265625 L 21.734375 -12.234375 L 6.46875 -12.234375 L 6.46875 -2.984375 L 23.546875 -2.984375 L 23.546875 0 L 3.359375 0 L 3.359375 -27.453125 L 23.546875 -27.453125 L 23.546875 -24.46875 Z M 6.46875 -24.46875 "/></g></g></g><path stroke-linecap="butt" transform="matrix(0.75, 0, 0, 0.75, 90.086739, 218.673413)" fill="none" stroke-linejoin="miter" d="M -0.00106918 2.99795 L 259.769781 2.99795 " stroke="#000000" stroke-width="6" stroke-opacity="1" stroke-miterlimit="4"/><path stroke-linecap="butt" transform="matrix(-0.53033, 0.53033, -0.53033, -0.53033, 227.838198, 91.288156)" fill="none" stroke-linejoin="miter" d="M -0.00069628 0.999328 L 37.523842 1.003011 " stroke="#000000" stroke-width="2" stroke-opacity="1" stroke-miterlimit="4"/><path stroke-linecap="butt" transform="matrix(0, -0.75, 0.75, 0, 186.136545, 107.511351)" fill="none" stroke-linejoin="miter" d="M -0.000490947 1.000232 L 30.541178 1.000232 " stroke="#000000" stroke-width="2" stroke-opacity="1" stroke-miterlimit="4"/><path stroke-linecap="butt" transform="matrix(0.53033, 0.53033, -0.53033, 0.53033, 147.361444, 89.796973)" fill="none" stroke-linejoin="miter" d="M 0.0016391 0.99991 L 37.522495 0.99991 " stroke="#000000" stroke-width="2" stroke-opacity="1" stroke-miterlimit="4"/></svg>